<?xml version="1.0" encoding="UTF-8" standalone="no"?>
<!DOCTYPE svg PUBLIC "-//W3C//DTD SVG 1.1//EN" "http://www.w3.org/Graphics/SVG/1.1/DTD/svg11.dtd">
<svg width="100%" height="100%" viewBox="0 0 1000 1000" version="1.1" xmlns="http://www.w3.org/2000/svg" xmlns:xlink="http://www.w3.org/1999/xlink" xml:space="preserve" xmlns:serif="http://www.serif.com/" style="fill-rule:evenodd;clip-rule:evenodd;stroke-linecap:round;stroke-linejoin:round;">
    <g transform="matrix(1,0,0,1,-3.006144,285.682873)">
        <path d="M51.131,313.551L51.131,163.551L92.589,163.551L159.256,296.051L149.048,298.551L149.048,163.551L180.298,163.551L180.298,313.551L138.839,313.551L72.173,181.051L82.381,178.551L82.381,313.551L51.131,313.551Z" style="fill-rule:nonzero;"/>
        <path d="M291.756,315.634C270.367,315.634 254.36,309.766 243.735,298.03C233.11,286.294 227.798,269.176 227.798,246.676L227.798,163.551L259.881,163.551L259.881,252.301C259.881,265.356 262.728,274.94 268.423,281.051C274.117,287.162 281.964,290.218 291.964,290.218C301.964,290.218 309.812,287.162 315.506,281.051C321.201,274.94 324.048,265.426 324.048,252.509L324.048,163.551L356.131,163.551L356.131,247.093C356.131,269.315 350.784,286.294 340.089,298.03C329.395,309.766 313.284,315.634 291.756,315.634Z" style="fill-rule:nonzero;"/>
        <path d="M447.173,313.551L447.173,188.134L398.214,188.134L398.214,163.551L528.214,163.551L528.214,188.134L479.256,188.134L479.256,313.551L447.173,313.551Z" style="fill-rule:nonzero;"/>
        <path d="M570.714,313.551L570.714,163.551L637.798,163.551C648.631,163.551 658.076,165.391 666.131,169.072C674.187,172.752 680.437,177.926 684.881,184.593C689.326,191.259 691.548,199.037 691.548,207.926C691.548,216.676 689.326,224.35 684.881,230.947C680.437,237.544 674.187,242.683 666.131,246.363C658.076,250.044 648.631,251.884 637.798,251.884L596.131,251.884L596.131,228.343L636.964,228.343C644.603,228.343 650.471,226.572 654.569,223.03C658.666,219.488 660.714,214.523 660.714,208.134C660.714,201.606 658.701,196.641 654.673,193.238C650.645,189.836 644.742,188.134 636.964,188.134L602.798,188.134L602.798,313.551L570.714,313.551ZM655.298,313.551L595.089,235.634L629.048,235.634L698.631,313.551L655.298,313.551Z" style="fill-rule:nonzero;"/>
        <g transform="matrix(1,0,0,0.673333,0,102.426634)">
            <rect x="739.048" y="163.551" width="32.083" height="150" style="fill-rule:nonzero;"/>
        </g>
        <path d="M917.381,313.551L875.923,247.926L818.006,163.551L855.506,163.551L894.464,225.426L954.881,313.551L917.381,313.551ZM880.506,225.218L920.923,163.551L954.881,163.551L891.131,252.093L880.506,225.218ZM887.798,252.926L848.006,313.551L814.048,313.551L877.173,226.051L887.798,252.926Z" style="fill-rule:nonzero;"/>
    </g>
    <g transform="matrix(4.239522,0,0,4.239522,701.209068,385.964307)">
        <g id="SVGRepo_iconCarrier">
            <path d="M8.5,14.5C9.871,14.5 11,13.371 11,12C11,10.62 10.5,10 10,9C8.928,6.857 9.776,4.946 12,3C12.5,5.5 14,7.9 16,9.5C18,11.1 19,13 19,15C19,18.84 15.84,22 12,22C8.16,22 5,18.84 5,15C5,13.847 5.433,12.706 6,12C6,13.371 7.129,14.5 8.5,14.5Z" style="fill:none;fill-rule:nonzero;stroke:black;stroke-width:2px;"/>
        </g>
    </g>
</svg>
